<?xml version="1.0" standalone="no"?>
<!DOCTYPE svg PUBLIC "-//W3C//DTD SVG 20010904//EN"
 "http://www.w3.org/TR/2001/REC-SVG-20010904/DTD/svg10.dtd">
<svg version="1.0" xmlns="http://www.w3.org/2000/svg"
 width="1024.000000pt" height="1024.000000pt" viewBox="0 0 1024.000000 1024.000000"
 preserveAspectRatio="xMidYMid meet">
<metadata>
Created by potrace 1.14, written by Peter Selinger 2001-2017
</metadata>
<g transform="translate(0.000000,1024.000000) scale(0.100000,-0.100000)"
fill="#000000" stroke="none">
<path d="M4625 9750 c-11 -5 -32 -9 -47 -9 -17 -1 -28 -7 -28 -15 0 -9 -20
-16 -65 -21 -36 -3 -65 -10 -65 -15 0 -4 -36 -11 -80 -15 -44 -4 -80 -11 -80
-15 0 -5 -18 -11 -40 -15 -22 -4 -40 -11 -40 -16 0 -5 -7 -9 -15 -9 -8 0 -15
5 -15 10 0 18 -29 10 -35 -10 -4 -13 -16 -20 -33 -21 -87 -2 -147 -10 -150
-19 -2 -5 -19 -10 -37 -10 -19 0 -37 -4 -40 -10 -3 -5 -17 -10 -31 -10 -14 0
-24 -6 -24 -14 0 -9 -18 -16 -55 -21 -30 -3 -55 -11 -55 -16 0 -5 -18 -12 -40
-15 -22 -4 -40 -10 -40 -15 0 -5 -11 -9 -25 -9 -14 0 -28 -7 -31 -15 -4 -8
-15 -15 -25 -15 -10 0 -19 -4 -19 -9 0 -5 -16 -12 -35 -15 -19 -4 -35 -11 -35
-16 0 -6 -18 -13 -40 -16 -22 -4 -40 -10 -40 -15 0 -5 -9 -9 -20 -9 -11 0 -20
-4 -20 -10 0 -5 -9 -10 -20 -10 -11 0 -28 -9 -37 -20 -10 -11 -30 -20 -45 -20
-16 0 -28 -4 -28 -10 0 -5 -11 -12 -25 -16 -14 -3 -25 -12 -25 -19 0 -7 -16
-16 -36 -19 -19 -4 -38 -14 -41 -22 -3 -7 -13 -14 -23 -14 -10 0 -25 -7 -34
-15 -8 -8 -18 -15 -22 -15 -3 0 -14 -8 -23 -18 -9 -10 -37 -24 -63 -32 -27 -7
-48 -16 -48 -21 0 -4 -10 -9 -22 -11 -15 -2 -24 -11 -26 -25 -2 -13 -10 -23
-18 -23 -8 0 -14 -4 -14 -10 0 -5 -7 -10 -15 -10 -17 0 -52 -18 -73 -37 -7 -7
-20 -13 -28 -13 -8 0 -14 -6 -14 -14 0 -8 -12 -17 -26 -20 -25 -7 -37 -14 -75
-48 -10 -10 -23 -18 -27 -18 -4 0 -14 -9 -22 -20 -8 -11 -23 -20 -32 -20 -10
0 -24 -11 -30 -25 -6 -14 -17 -25 -25 -25 -7 0 -13 -7 -13 -15 0 -8 -9 -15
-20 -15 -11 0 -20 -7 -20 -15 0 -8 -7 -15 -15 -15 -9 0 -18 -6 -21 -14 -3 -8
-19 -18 -35 -21 -16 -4 -29 -10 -29 -14 0 -12 -48 -61 -60 -61 -6 0 -13 -7
-16 -15 -4 -8 -11 -15 -18 -15 -6 -1 -22 -15 -36 -32 -14 -17 -31 -36 -38 -42
-7 -6 -23 -20 -35 -31 -12 -12 -30 -24 -39 -28 -10 -3 -20 -18 -24 -32 -3 -14
-12 -25 -20 -25 -8 0 -14 -4 -14 -10 0 -5 -5 -10 -11 -10 -17 0 -79 -66 -79
-84 0 -9 -11 -18 -25 -22 -14 -3 -25 -11 -25 -18 0 -13 -35 -46 -50 -46 -6 0
-10 -9 -10 -19 0 -10 -7 -21 -15 -25 -8 -3 -15 -12 -15 -20 0 -7 -7 -16 -15
-20 -8 -3 -15 -12 -15 -21 0 -8 -9 -15 -19 -15 -12 0 -21 -9 -25 -25 -4 -14
-11 -25 -17 -25 -14 0 -39 -26 -39 -40 0 -12 -59 -70 -71 -70 -4 0 -10 -16
-13 -35 -4 -19 -11 -35 -16 -35 -16 0 -57 -47 -64 -73 -3 -14 -15 -29 -26 -32
-11 -3 -20 -13 -20 -21 0 -8 -4 -14 -9 -14 -5 0 -15 -16 -22 -35 -7 -19 -16
-35 -20 -35 -4 0 -10 -11 -13 -25 -4 -14 -13 -25 -21 -25 -8 0 -15 -7 -15 -15
0 -9 -6 -18 -14 -21 -8 -3 -20 -28 -26 -55 -7 -27 -16 -49 -20 -49 -4 0 -11
-11 -14 -24 -3 -13 -15 -26 -26 -29 -11 -3 -20 -12 -20 -21 0 -9 -4 -16 -10
-16 -5 0 -12 -15 -16 -34 -3 -19 -17 -43 -30 -53 -13 -10 -24 -23 -24 -30 0
-7 -4 -13 -9 -13 -5 0 -11 -18 -15 -40 -3 -22 -11 -40 -16 -40 -6 0 -10 -6
-10 -13 0 -23 -24 -67 -37 -67 -7 0 -15 -17 -19 -37 -4 -21 -13 -44 -21 -51
-7 -7 -13 -27 -13 -43 0 -16 -4 -29 -9 -29 -5 0 -12 -11 -15 -25 -4 -14 -11
-25 -16 -25 -6 0 -10 -11 -10 -25 0 -14 -4 -25 -10 -25 -5 0 -10 -16 -10 -35
0 -23 -5 -35 -14 -35 -9 0 -16 -17 -21 -50 -4 -27 -11 -50 -16 -50 -5 0 -9 -7
-9 -15 0 -8 -4 -15 -9 -15 -5 0 -12 -24 -16 -52 -4 -29 -12 -56 -17 -59 -6 -4
-13 -27 -15 -53 -3 -25 -10 -46 -14 -46 -5 0 -9 -11 -9 -24 0 -43 -12 -86 -25
-86 -8 0 -16 -36 -25 -107 -7 -60 -16 -110 -21 -113 -4 -3 -11 -47 -15 -98 -4
-50 -11 -92 -15 -92 -5 0 -9 -25 -9 -55 0 -30 -4 -55 -9 -55 -4 0 -11 -51 -15
-112 -4 -62 -11 -114 -17 -116 -12 -5 -12 -782 0 -782 4 0 11 -66 15 -147 4
-82 12 -149 17 -151 5 -2 9 -24 9 -48 0 -24 4 -44 9 -44 4 0 11 -39 15 -87 3
-48 10 -90 15 -93 4 -3 11 -34 15 -70 4 -36 10 -89 13 -118 3 -32 10 -52 18
-52 17 0 25 -23 25 -71 0 -21 4 -39 9 -39 5 0 12 -20 15 -45 4 -25 11 -45 15
-45 5 0 11 -18 15 -40 3 -22 11 -40 16 -40 6 0 10 -18 10 -40 0 -22 4 -40 9
-40 4 0 11 -16 14 -35 3 -19 13 -42 21 -51 9 -8 16 -29 16 -46 0 -17 8 -38 18
-47 11 -9 22 -34 26 -55 4 -21 14 -45 22 -53 8 -8 14 -30 14 -49 0 -19 4 -34
9 -34 5 0 12 -14 16 -30 4 -17 12 -30 19 -30 6 0 17 -20 24 -45 7 -25 16 -45
21 -45 5 0 12 -16 15 -35 4 -19 11 -35 16 -35 6 0 10 -7 10 -15 0 -8 5 -15 10
-15 6 0 10 -7 10 -15 0 -8 9 -24 20 -35 11 -11 20 -29 20 -40 0 -11 4 -20 10
-20 5 0 12 -11 16 -25 3 -14 12 -25 20 -25 7 0 16 -15 20 -34 3 -19 12 -37 19
-40 7 -2 16 -18 20 -35 4 -17 13 -31 21 -31 8 0 14 -9 14 -20 0 -11 6 -20 14
-20 8 0 17 -14 21 -30 4 -17 11 -30 16 -30 5 0 9 -7 9 -15 0 -9 14 -29 30 -45
16 -16 30 -34 30 -40 0 -11 11 -26 41 -58 9 -9 19 -29 23 -44 3 -16 13 -28 21
-28 7 0 17 -9 20 -20 3 -11 11 -20 16 -20 5 0 9 -8 9 -18 0 -10 8 -25 17 -34
28 -26 43 -46 43 -58 0 -5 5 -10 10 -10 6 0 10 -6 10 -14 0 -7 9 -16 20 -19
11 -3 20 -12 20 -20 0 -9 9 -19 20 -22 13 -4 23 -18 27 -36 3 -16 9 -29 14
-29 5 0 9 -7 9 -16 0 -9 13 -21 30 -27 16 -6 30 -17 30 -24 0 -7 11 -15 24
-19 14 -3 27 -15 30 -30 4 -14 16 -26 31 -30 14 -3 25 -12 25 -20 0 -15 66
-84 80 -84 6 0 10 -7 10 -14 0 -18 43 -66 59 -66 12 0 71 -59 71 -71 0 -5 7
-9 15 -9 8 0 15 -7 15 -15 0 -8 7 -15 15 -15 8 0 15 -4 15 -10 0 -5 7 -10 16
-10 9 0 21 -14 27 -31 8 -21 20 -32 39 -36 16 -3 28 -12 28 -19 0 -8 6 -14 13
-14 7 0 23 -10 35 -22 28 -31 49 -48 59 -48 4 0 19 -14 32 -30 13 -17 32 -30
42 -30 11 0 19 -4 19 -10 0 -5 11 -12 24 -16 13 -3 26 -14 29 -25 3 -10 12
-19 21 -19 9 0 25 -9 36 -20 11 -11 29 -20 40 -20 21 0 60 -33 60 -50 0 -5 7
-10 15 -10 9 0 18 -7 21 -15 3 -8 22 -19 42 -26 20 -7 48 -24 62 -39 14 -15
40 -31 58 -35 18 -3 32 -10 32 -14 0 -4 18 -14 40 -21 22 -7 40 -19 40 -27 0
-8 12 -13 30 -13 18 0 33 -6 36 -15 3 -8 21 -17 40 -21 19 -3 34 -10 34 -15 0
-5 9 -9 20 -9 11 0 23 -7 26 -15 4 -8 12 -15 20 -15 8 0 14 -4 14 -10 0 -5 13
-10 28 -10 16 0 39 -9 52 -20 13 -11 31 -20 42 -20 10 0 18 -4 18 -10 0 -5 11
-10 24 -10 13 0 26 -5 28 -11 2 -5 22 -13 46 -16 23 -3 42 -9 42 -14 0 -4 14
-10 30 -14 17 -4 30 -10 30 -15 0 -4 29 -11 65 -15 42 -4 65 -11 65 -19 0 -8
27 -18 70 -26 39 -7 70 -17 70 -22 0 -4 20 -8 44 -8 26 0 51 -6 60 -15 8 -8
28 -15 45 -15 17 0 31 -4 31 -9 0 -5 28 -12 63 -16 34 -4 65 -11 68 -16 3 -5
33 -12 67 -15 34 -4 62 -10 62 -14 0 -5 52 -11 115 -15 83 -5 115 -11 115 -20
0 -20 191 -30 590 -30 417 0 650 11 650 30 0 9 32 15 115 20 63 4 115 10 115
15 0 4 28 10 62 14 34 3 64 10 67 15 3 5 30 12 59 16 28 4 52 11 52 16 0 5 14
9 30 9 17 0 30 4 30 9 0 4 32 12 70 15 39 4 70 11 70 17 0 5 18 9 39 9 22 0
43 5 46 10 3 6 24 10 46 10 26 0 39 4 39 14 0 8 16 16 40 20 22 3 40 10 40 16
0 5 17 12 38 16 20 4 40 11 43 17 4 5 30 12 58 15 28 2 51 8 51 13 0 5 5 9 11
9 6 0 17 6 24 13 37 32 46 37 70 37 14 0 28 7 31 15 4 8 18 15 34 15 16 0 30
7 34 15 3 8 15 15 26 15 11 0 20 5 20 10 0 6 8 10 18 10 11 0 29 9 42 20 13
11 35 20 50 20 19 0 29 6 33 19 3 13 17 22 43 27 21 4 45 13 52 21 7 7 22 13
33 13 11 0 19 7 19 16 0 24 22 41 71 55 24 7 48 19 52 26 4 7 15 13 22 13 8 0
15 5 15 10 0 19 36 46 78 58 47 14 82 39 82 59 0 7 11 15 25 19 14 3 25 10 25
15 0 5 11 14 25 19 14 5 25 14 25 20 0 5 6 10 14 10 8 0 18 9 21 20 3 11 18
23 32 26 26 7 73 48 73 64 0 6 8 10 18 10 10 0 29 13 43 29 14 16 39 32 57 36
22 4 34 14 38 29 3 12 15 29 26 37 42 28 128 118 128 133 0 9 7 16 15 16 8 0
15 5 15 10 0 6 5 10 11 10 18 0 59 43 59 62 0 9 9 20 20 23 11 3 23 17 26 30
3 13 12 26 20 29 8 3 14 12 14 21 0 8 4 15 9 15 14 0 61 45 61 58 0 11 35 49
82 87 14 11 28 33 31 47 4 15 16 29 26 33 12 3 23 19 27 37 3 18 19 43 35 57
16 14 29 31 29 38 0 7 7 13 15 13 8 0 15 7 15 15 0 19 21 58 38 68 6 4 12 17
12 27 0 11 5 20 10 20 6 0 10 7 10 15 0 8 5 15 10 15 6 0 10 5 10 11 0 6 7 17
15 26 9 8 19 28 22 44 3 16 9 29 14 29 5 0 9 9 9 21 0 12 8 23 19 26 12 3 23
17 26 34 4 16 10 29 14 29 4 0 13 23 20 50 7 28 16 50 21 50 4 0 10 17 14 39
4 27 12 40 26 44 12 3 20 14 20 26 0 12 4 21 8 21 5 0 14 25 21 55 7 30 17 55
22 55 5 0 9 7 9 15 0 8 5 15 10 15 6 0 10 11 10 25 0 14 4 25 9 25 5 0 13 15
16 33 4 17 11 34 16 37 4 3 14 36 21 73 8 40 18 67 25 67 7 0 16 18 19 40 4
22 10 40 14 40 4 0 11 26 15 58 4 31 12 60 17 63 6 4 13 27 15 53 3 25 10 46
14 46 5 0 9 18 9 39 0 22 5 41 10 43 6 2 13 27 17 56 3 28 10 52 14 52 5 0 9
18 9 40 0 25 -5 40 -12 40 -9 0 -10 2 -2 8 6 4 14 17 18 30 4 12 12 22 17 22
5 0 9 11 9 25 0 14 4 25 9 25 5 0 12 16 15 35 4 19 11 35 16 35 6 0 10 7 10
15 0 9 6 18 14 21 8 3 16 14 19 25 3 10 12 19 20 19 9 0 18 13 22 29 3 16 15
39 26 52 10 12 19 30 19 40 0 10 9 21 20 24 11 3 20 15 20 26 0 10 7 19 15 19
20 0 19 27 -2 48 -15 15 -55 17 -411 17 -307 0 -396 -3 -399 -12 -3 -8 -22
-13 -46 -13 -65 0 -117 -11 -117 -25 0 -7 -31 -16 -82 -23 -45 -7 -85 -17 -89
-23 -3 -6 -27 -14 -53 -16 -25 -3 -46 -10 -46 -14 0 -5 -7 -9 -15 -9 -8 0 -15
-4 -15 -10 0 -5 -6 -10 -14 -10 -8 0 -16 -4 -18 -10 -1 -5 -30 -15 -63 -21
-33 -6 -64 -17 -68 -25 -4 -8 -21 -14 -37 -14 -20 0 -30 -5 -30 -15 0 -8 -11
-17 -25 -21 -14 -3 -25 -9 -25 -13 0 -4 -22 -13 -50 -21 -27 -7 -51 -19 -54
-27 -3 -7 -15 -13 -26 -13 -11 0 -20 -7 -20 -15 0 -8 -6 -15 -13 -15 -7 0 -20
-9 -30 -20 -9 -11 -25 -20 -34 -20 -10 0 -32 -16 -48 -35 -17 -19 -37 -35 -46
-35 -18 0 -79 -52 -79 -68 0 -6 -9 -14 -20 -17 -11 -3 -20 -11 -20 -16 0 -5
-6 -9 -13 -9 -7 0 -20 -8 -29 -17 -9 -10 -22 -22 -27 -28 -52 -50 -151 -155
-151 -160 0 -4 -20 -27 -45 -52 -25 -24 -45 -48 -45 -53 0 -15 -33 -50 -46
-50 -7 0 -17 -13 -23 -30 -5 -16 -15 -30 -20 -30 -6 0 -11 -7 -11 -15 0 -16
-46 -65 -60 -65 -6 0 -10 -9 -10 -20 0 -11 -9 -29 -20 -40 -11 -11 -20 -24
-20 -29 0 -5 -10 -11 -22 -13 -13 -2 -24 -11 -26 -22 -5 -23 -73 -96 -90 -96
-7 0 -12 -5 -12 -11 0 -17 -166 -179 -184 -179 -9 0 -16 -6 -16 -14 0 -8 -10
-18 -22 -21 -11 -4 -31 -17 -42 -30 -12 -12 -31 -25 -43 -29 -12 -4 -25 -16
-28 -27 -4 -10 -14 -19 -23 -19 -10 0 -25 -9 -35 -20 -9 -11 -23 -20 -31 -20
-8 0 -18 -9 -21 -20 -4 -13 -15 -20 -31 -20 -13 0 -32 -9 -41 -20 -10 -11 -25
-20 -35 -20 -10 0 -18 -4 -18 -9 0 -5 -13 -12 -30 -16 -16 -4 -30 -11 -30 -16
0 -5 -9 -9 -20 -9 -11 0 -20 -4 -20 -10 0 -5 -11 -12 -25 -16 -14 -3 -25 -10
-25 -14 0 -4 -16 -11 -35 -14 -19 -4 -35 -11 -35 -16 0 -6 -7 -10 -15 -10 -8
0 -15 -4 -15 -9 0 -5 -18 -11 -40 -15 -22 -3 -40 -10 -40 -16 0 -5 -16 -12
-35 -16 -19 -3 -35 -10 -35 -14 0 -5 -25 -12 -55 -15 -34 -5 -55 -12 -55 -20
0 -8 -29 -17 -82 -25 -46 -7 -85 -17 -88 -21 -3 -4 -47 -11 -98 -15 -50 -4
-92 -11 -92 -15 0 -5 -29 -9 -65 -9 -37 0 -65 -4 -65 -10 0 -6 -68 -10 -185
-10 -117 0 -185 4 -185 10 0 6 -27 10 -60 10 -33 0 -60 4 -60 8 0 5 -48 12
-107 16 -60 3 -109 11 -111 16 -2 6 -19 10 -38 10 -60 0 -174 24 -174 36 0 7
-24 15 -60 19 -33 4 -60 11 -60 15 0 5 -19 11 -42 15 -23 4 -48 14 -56 21 -7
8 -22 14 -33 14 -10 0 -19 5 -19 10 0 6 -11 10 -25 10 -14 0 -25 4 -25 9 0 5
-13 12 -30 16 -16 4 -30 10 -30 15 0 4 -18 11 -40 15 -25 4 -41 13 -45 25 -3
11 -20 21 -40 24 -19 4 -35 11 -35 15 0 5 -16 12 -35 15 -19 4 -35 11 -35 16
0 4 -13 11 -30 15 -16 4 -32 15 -35 26 -4 10 -14 19 -23 19 -10 0 -25 9 -35
20 -9 11 -23 20 -30 20 -7 0 -21 11 -31 25 -10 14 -25 25 -32 25 -8 0 -14 4
-14 9 0 5 -9 13 -21 16 -27 9 -59 36 -59 51 0 7 -13 17 -30 22 -30 11 -57 36
-94 86 -10 14 -23 26 -29 26 -11 0 -57 47 -57 59 0 5 -12 17 -26 27 -48 34
-83 72 -89 96 -3 13 -19 29 -36 37 -17 8 -29 20 -29 32 0 10 -8 27 -18 37 -10
10 -21 26 -25 35 -3 9 -13 17 -21 17 -8 0 -17 13 -21 30 -4 16 -10 30 -13 30
-8 0 -32 49 -32 66 0 7 -9 16 -20 19 -11 3 -20 13 -20 21 0 8 -4 14 -10 14 -5
0 -10 9 -10 20 0 10 -7 23 -15 27 -8 5 -21 32 -27 61 -7 29 -18 52 -24 52 -13
0 -24 22 -24 50 0 10 -7 20 -15 24 -8 3 -15 17 -15 31 0 14 -4 25 -9 25 -5 0
-12 20 -15 45 -4 25 -11 45 -17 45 -5 0 -9 14 -9 30 0 17 -4 30 -9 30 -6 0
-13 20 -17 45 -3 25 -10 45 -14 45 -5 0 -12 29 -15 65 -4 36 -11 65 -16 65 -5
0 -9 18 -9 39 0 22 -4 41 -9 43 -6 2 -13 65 -17 140 -4 76 -11 138 -15 138 -5
0 -9 83 -9 185 0 102 4 185 9 185 5 0 12 47 16 105 4 58 11 105 16 105 5 0 9
16 9 35 0 19 4 35 10 35 5 0 12 27 16 60 4 33 10 60 15 60 4 0 11 20 15 45 3
25 10 45 15 45 5 0 9 11 9 25 0 14 4 25 9 25 5 0 12 20 15 45 4 25 11 45 16
45 5 0 12 16 16 35 3 19 10 35 14 35 5 0 11 14 15 30 4 17 12 30 19 30 8 0 19
20 26 45 7 25 16 45 20 45 4 0 11 16 14 35 4 19 11 35 16 35 6 0 10 5 10 10 0
6 11 22 24 35 14 13 27 33 31 44 3 10 12 22 20 25 8 3 15 12 15 21 0 8 7 15
15 15 8 0 15 5 15 11 0 7 16 26 35 45 19 18 35 40 35 48 0 9 9 16 20 16 11 0
20 7 20 15 0 8 7 15 15 15 8 0 15 5 15 10 0 15 46 60 62 60 7 0 24 12 37 25
13 14 32 25 42 25 10 0 19 5 19 11 0 6 38 49 85 95 47 47 85 91 85 99 0 8 7
15 15 15 8 0 15 5 15 10 0 6 11 21 24 33 13 12 27 33 31 47 4 14 16 32 26 41
10 8 21 27 24 42 4 15 11 27 15 27 5 0 11 13 15 30 4 17 11 30 16 30 5 0 9 9
9 20 0 11 4 20 10 20 5 0 12 17 16 38 4 20 11 39 15 43 5 3 12 27 15 55 4 27
11 52 17 55 5 4 11 36 14 73 4 42 10 66 18 66 8 0 14 27 19 77 13 154 2 333
-19 333 -9 0 -15 43 -20 159 -8 184 1 361 19 361 7 0 16 30 23 71 6 40 15 74
21 78 5 3 13 21 17 39 3 17 11 32 16 32 5 0 9 6 9 14 0 8 9 17 19 21 11 3 21
19 25 38 3 18 15 40 26 50 11 9 20 24 20 32 0 8 5 15 10 15 12 0 42 30 79 79
13 17 29 31 35 31 6 1 20 13 31 27 22 28 60 67 97 98 13 11 30 35 37 53 7 17
20 32 27 32 8 0 14 6 14 13 0 8 8 23 18 35 42 51 52 67 52 84 0 10 5 18 10 18
6 0 10 7 10 15 0 8 4 15 10 15 5 0 12 11 16 25 3 14 10 25 14 25 5 0 11 18 15
40 4 22 11 40 16 40 5 0 9 14 9 30 0 17 4 30 9 30 6 0 13 20 17 45 3 25 10 45
14 45 4 0 11 28 15 63 4 34 12 65 17 68 6 4 13 83 16 183 5 188 6 187 -43 166z"/>
<path d="M5278 9292 c-32 -1 -58 -7 -58 -12 0 -6 -10 -10 -22 -10 -38 0 -68
-12 -68 -26 0 -7 -19 -19 -42 -26 -24 -6 -53 -22 -65 -35 -12 -13 -25 -23 -28
-23 -3 0 -19 -13 -37 -30 -17 -16 -34 -30 -38 -30 -4 0 -13 -20 -20 -45 -7
-25 -18 -45 -26 -45 -7 0 -16 -9 -19 -20 -3 -11 -10 -20 -14 -20 -5 0 -11 -18
-15 -39 -3 -22 -11 -41 -17 -43 -6 -2 -13 -25 -16 -51 -3 -26 -10 -47 -14 -47
-5 0 -9 -13 -9 -30 0 -16 -4 -30 -10 -30 -7 0 -10 -558 -10 -1655 0 -1097 3
-1655 10 -1655 6 0 10 -9 10 -20 0 -11 5 -20 10 -20 6 0 10 -9 10 -20 0 -11 7
-23 15 -26 8 -4 15 -12 15 -19 0 -8 6 -20 13 -27 8 -7 17 -26 21 -41 3 -15 13
-27 21 -27 9 0 19 -17 26 -44 6 -25 17 -47 25 -50 8 -3 14 -12 14 -20 0 -8 9
-18 20 -21 11 -3 20 -15 20 -26 0 -10 4 -19 9 -19 5 0 15 -29 22 -65 7 -36 16
-65 20 -65 4 0 10 -36 14 -80 5 -58 11 -80 21 -80 10 0 14 -13 14 -45 0 -31
-4 -45 -13 -45 -11 0 -16 -26 -21 -102 -3 -56 -10 -105 -15 -108 -4 -3 -14
-47 -21 -97 -8 -51 -18 -93 -22 -93 -4 0 -8 -9 -8 -20 0 -11 -4 -20 -10 -20
-5 0 -10 -15 -10 -34 0 -19 -5 -36 -10 -38 -6 -2 -13 -27 -17 -56 -3 -28 -9
-52 -13 -52 -4 0 -13 -36 -21 -80 -8 -50 -17 -80 -25 -80 -8 0 -15 -21 -19
-55 -4 -30 -11 -55 -15 -55 -4 0 -11 -28 -14 -62 -4 -35 -12 -65 -17 -68 -5
-4 -12 -34 -15 -68 -4 -34 -11 -62 -15 -62 -5 0 -9 -43 -9 -95 0 -52 4 -95 9
-95 5 0 12 -29 16 -65 3 -36 10 -65 15 -65 4 0 11 -18 15 -40 4 -22 10 -40 15
-40 4 0 11 -11 14 -25 4 -14 13 -25 21 -25 9 0 19 -17 26 -44 7 -29 19 -48 35
-56 13 -8 24 -19 24 -27 0 -7 5 -13 10 -13 6 0 10 -7 10 -15 0 -8 5 -15 10
-15 6 0 16 -12 23 -27 14 -33 38 -63 50 -63 8 0 29 -22 77 -80 13 -17 28 -30
33 -30 13 0 57 -51 57 -66 0 -8 7 -14 15 -14 8 0 15 -7 15 -15 0 -8 9 -15 20
-15 13 0 20 -7 20 -20 0 -11 7 -20 15 -20 9 0 18 -7 21 -15 8 -19 44 -20 44
-2 0 20 46 71 58 63 5 -3 10 0 9 7 -1 33 4 47 18 47 8 0 44 29 80 65 36 36 69
65 74 65 5 0 12 12 15 26 4 15 25 43 47 63 21 21 39 43 39 49 0 7 5 12 10 12
6 0 10 6 10 14 0 8 7 16 15 20 8 3 15 12 15 20 0 7 7 16 15 20 8 3 15 13 15
21 0 9 7 23 15 31 8 9 15 24 15 34 0 10 8 20 19 23 12 3 21 18 26 43 4 22 12
42 18 46 18 11 17 380 0 386 -7 2 -13 13 -13 25 0 56 -24 177 -36 177 -8 0
-15 25 -19 70 -4 39 -11 70 -15 70 -5 0 -11 34 -15 75 -4 41 -11 75 -15 75 -4
0 -11 34 -15 75 -4 41 -11 75 -16 75 -5 0 -9 16 -9 35 0 19 -4 35 -9 35 -5 0
-13 36 -17 80 -3 44 -10 80 -15 80 -4 0 -11 41 -15 90 -3 50 -10 90 -15 90 -5
0 -9 38 -9 85 0 47 4 85 9 85 4 0 11 30 14 67 3 37 10 69 16 71 6 2 11 17 11
32 0 18 10 39 25 54 14 14 25 34 25 44 0 10 9 29 20 42 11 13 20 29 20 37 0 7
5 13 10 13 6 0 10 7 10 16 0 9 9 18 19 21 11 3 25 18 31 34 7 16 16 29 21 29
4 0 11 10 15 23 7 22 40 57 54 57 27 0 30 185 30 1747 0 1678 -2 1770 -41
1804 -10 9 -19 21 -19 28 0 6 -4 11 -9 11 -5 0 -12 15 -15 34 -4 19 -13 36
-20 39 -8 3 -17 19 -21 36 -4 17 -11 31 -17 31 -9 0 -44 28 -71 58 -67 73 -80
82 -122 93 -25 6 -45 17 -45 24 0 8 -18 16 -42 20 -24 4 -45 11 -48 15 -6 9
-165 17 -242 12z"/>
</g>
</svg>
